<svg version="1.2" baseProfile="tiny-ps" xmlns="http://www.w3.org/2000/svg" viewBox="0 0 5333 1250" width="853" height="200">
	<title>Yeni Proje</title>
	<style>
		tspan { white-space:pre }
		.shp0 { fill: #52c052 } 
		.shp1 { fill: #ffa500 } 
		.shp2 { fill: #ff0000 } 
	</style>
	<path id="Şekil 1" class="shp0" d="M2666 617C2610.7 617 2566 572.3 2566 517C2566 461.7 2610.7 417 2666 417C2721.3 417 2766 461.7 2766 517C2766 572.3 2721.3 617 2666 617Z" />
	<path id="Şekil 1 copy" class="shp1" d="M1938 617C1882.7 617 1838 572.3 1838 517C1838 461.7 1882.7 417 1938 417C1993.3 417 2038 461.7 2038 517C2038 572.3 1993.3 617 1938 617Z" />
	<path id="Şekil 1 copy 2" class="shp2" d="M3402 617C3346.7 617 3302 572.3 3302 517C3302 461.7 3346.7 417 3402 417C3457.3 417 3502 461.7 3502 517C3502 572.3 3457.3 617 3402 617Z" />
	<path id="Still Waiting      Completed    " fill="#1d1d1d" aria-label="Still Waiting      Completed       Suspended"  d="M1680.55 813.95C1698.79 813.95 1707.43 804.83 1707.43 794.19C1707.43 769.77 1668.01 778.99 1668.01 764.84C1668.01 759.8 1672.18 755.81 1682.44 755.81C1688.24 755.81 1694.8 757.52 1700.78 761.03L1704.67 751.44C1698.88 747.64 1690.52 745.55 1682.54 745.55C1664.3 745.55 1655.75 754.67 1655.75 765.4C1655.75 790.11 1695.27 780.7 1695.27 795.04C1695.27 799.99 1690.9 803.69 1680.55 803.69C1672.38 803.69 1663.92 800.65 1658.6 796.38L1654.33 805.97C1659.84 810.72 1670.19 813.95 1680.55 813.95ZM1745.71 801.79C1743.91 803.22 1741.54 803.88 1739.07 803.88C1734.51 803.88 1732.04 801.22 1732.04 796.28L1732.04 772.15L1745.62 772.15L1745.62 762.65L1732.04 762.65L1732.04 751.06L1720.16 751.06L1720.16 762.65L1711.8 762.65L1711.8 772.15L1720.16 772.15L1720.16 796.57C1720.16 807.77 1726.53 813.66 1737.64 813.66C1741.91 813.66 1746.19 812.52 1749.04 810.25ZM1764.81 753.91C1769.28 753.91 1772.41 750.68 1772.41 746.5C1772.41 742.61 1769.18 739.66 1764.81 739.66C1760.44 739.66 1757.21 742.79 1757.21 746.78C1757.21 750.77 1760.44 753.91 1764.81 753.91ZM1758.83 813L1770.7 813L1770.7 762.27L1758.83 762.27ZM1786.28 813L1798.15 813L1798.15 742.51L1786.28 742.51ZM1813.73 813L1825.61 813L1825.61 742.51L1813.73 742.51ZM1953.95 746.5L1936.95 797.33L1920.13 746.5L1908.74 746.5L1891.54 797.04L1875.01 746.5L1862.18 746.5L1884.22 813L1897.43 813L1914.15 763.79L1930.59 813L1943.69 813L1965.74 746.5ZM1990.24 761.7C1982.08 761.7 1974.19 763.79 1968.78 767.97L1973.43 776.62C1977.23 773.48 1983.12 771.58 1988.82 771.58C1997.28 771.58 2001.45 775.66 2001.45 782.6L2001.45 783.36L1988.35 783.36C1972.95 783.36 1967.26 790.01 1967.26 798.47C1967.26 807.3 1974.57 813.66 1986.16 813.66C1993.76 813.66 1999.27 811.2 2002.12 806.83L2002.12 813L2013.33 813L2013.33 783.26C2013.33 768.63 2004.88 761.7 1990.24 761.7ZM1988.63 805.02C1982.55 805.02 1978.94 802.26 1978.94 797.99C1978.94 794.28 1981.13 791.25 1989.2 791.25L2001.45 791.25L2001.45 797.13C1999.46 802.36 1994.42 805.02 1988.63 805.02ZM2034.51 753.91C2038.98 753.91 2042.12 750.68 2042.12 746.5C2042.12 742.61 2038.88 739.66 2034.51 739.66C2030.14 739.66 2026.91 742.79 2026.91 746.78C2026.91 750.77 2030.14 753.91 2034.51 753.91ZM2028.53 813L2040.4 813L2040.4 762.27L2028.53 762.27ZM2083.16 801.79C2081.35 803.22 2078.97 803.88 2076.51 803.88C2071.95 803.88 2069.47 801.22 2069.47 796.28L2069.47 772.15L2083.06 772.15L2083.06 762.65L2069.47 762.65L2069.47 751.06L2057.6 751.06L2057.6 762.65L2049.24 762.65L2049.24 772.15L2057.6 772.15L2057.6 796.57C2057.6 807.77 2063.97 813.66 2075.08 813.66C2079.36 813.66 2083.63 812.52 2086.48 810.25ZM2102.25 753.91C2106.72 753.91 2109.85 750.68 2109.85 746.5C2109.85 742.61 2106.62 739.66 2102.25 739.66C2097.88 739.66 2094.65 742.79 2094.65 746.78C2094.65 750.77 2097.88 753.91 2102.25 753.91ZM2096.26 813L2108.14 813L2108.14 762.27L2096.26 762.27ZM2152.51 761.7C2145.1 761.7 2138.92 764.17 2135.03 768.83L2135.03 762.27L2123.72 762.27L2123.72 813L2135.6 813L2135.6 787.35C2135.6 777.18 2141.3 772.05 2149.75 772.05C2157.35 772.05 2161.82 776.42 2161.82 785.45L2161.82 813L2173.69 813L2173.69 783.93C2173.69 768.63 2164.66 761.7 2152.51 761.7ZM2228.32 762.27L2228.32 769.01C2224.14 763.98 2217.86 761.7 2210.74 761.7C2196.2 761.7 2185.09 771.39 2185.09 786.12C2185.09 800.84 2196.2 810.72 2210.74 810.72C2217.58 810.72 2223.57 808.53 2227.74 803.98L2227.74 806.63C2227.74 816.89 2222.81 822.02 2211.6 822.02C2204.57 822.02 2197.35 819.65 2192.88 815.95L2187.56 824.88C2193.36 829.63 2202.76 832.1 2212.26 832.1C2230.03 832.1 2239.62 823.74 2239.62 805.3L2239.62 762.27ZM2212.55 800.65C2203.52 800.65 2197.06 794.76 2197.06 786.12C2197.06 777.57 2203.52 771.77 2212.55 771.77C2221.47 771.77 2227.93 777.57 2227.93 786.12C2227.93 794.76 2221.47 800.65 2212.55 800.65ZM2444.44 813.95C2455.37 813.95 2464.68 810.05 2470.85 802.84L2462.87 795.24C2458.03 800.55 2452.04 803.12 2445.11 803.12C2431.33 803.12 2421.36 793.43 2421.36 779.75C2421.36 766.07 2431.33 756.38 2445.11 756.38C2452.04 756.38 2458.03 758.95 2462.87 764.17L2470.85 756.66C2464.68 749.45 2455.37 745.55 2444.54 745.55C2424.11 745.55 2408.91 759.89 2408.91 779.75C2408.91 799.61 2424.11 813.95 2444.44 813.95ZM2502.49 813.66C2518.26 813.66 2529.56 802.84 2529.56 787.63C2529.56 772.43 2518.26 761.7 2502.49 761.7C2486.91 761.7 2475.51 772.43 2475.51 787.63C2475.51 802.84 2486.91 813.66 2502.49 813.66ZM2502.49 803.5C2493.94 803.5 2487.48 797.33 2487.48 787.63C2487.48 777.95 2493.94 771.77 2502.49 771.77C2511.13 771.77 2517.59 777.95 2517.59 787.63C2517.59 797.33 2511.13 803.5 2502.49 803.5ZM2604.99 761.7C2596.92 761.7 2590.08 764.93 2585.99 770.15C2582.48 764.46 2576.3 761.7 2568.89 761.7C2561.96 761.7 2556.07 764.17 2552.27 768.73L2552.27 762.27L2540.96 762.27L2540.96 813L2552.84 813L2552.84 787.25C2552.84 777.18 2558.16 772.05 2566.04 772.05C2573.26 772.05 2577.44 776.42 2577.44 785.45L2577.44 813L2589.32 813L2589.32 787.25C2589.32 777.18 2594.73 772.05 2602.52 772.05C2609.74 772.05 2613.92 776.42 2613.92 785.45L2613.92 813L2625.8 813L2625.8 783.93C2625.8 768.63 2617.25 761.7 2604.99 761.7ZM2669.12 761.7C2662.18 761.7 2656.29 764.08 2652.3 768.92L2652.3 762.27L2641 762.27L2641 831.43L2652.87 831.43L2652.87 806.83C2656.96 811.48 2662.66 813.66 2669.12 813.66C2683.94 813.66 2694.86 803.4 2694.86 787.63C2694.86 771.96 2683.94 761.7 2669.12 761.7ZM2667.79 803.5C2659.24 803.5 2652.68 797.33 2652.68 787.63C2652.68 777.95 2659.24 771.77 2667.79 771.77C2676.34 771.77 2682.8 777.95 2682.8 787.63C2682.8 797.33 2676.34 803.5 2667.79 803.5ZM2706.16 813L2718.04 813L2718.04 742.51L2706.16 742.51ZM2781.31 787.92C2781.31 772.05 2770.48 761.7 2755.66 761.7C2740.56 761.7 2729.44 772.53 2729.44 787.63C2729.44 802.74 2740.46 813.66 2757.47 813.66C2766.2 813.66 2773.33 810.82 2777.89 805.4L2771.53 798.09C2767.91 801.79 2763.45 803.6 2757.75 803.6C2748.91 803.6 2742.74 798.85 2741.32 791.43L2781.12 791.43C2781.22 790.29 2781.31 788.87 2781.31 787.92ZM2755.66 771.2C2763.45 771.2 2769.06 776.24 2770.01 783.55L2741.22 783.55C2742.36 776.14 2747.97 771.2 2755.66 771.2ZM2819.88 801.79C2818.07 803.22 2815.7 803.88 2813.23 803.88C2808.67 803.88 2806.2 801.22 2806.2 796.28L2806.2 772.15L2819.78 772.15L2819.78 762.65L2806.2 762.65L2806.2 751.06L2794.32 751.06L2794.32 762.65L2785.97 762.65L2785.97 772.15L2794.32 772.15L2794.32 796.57C2794.32 807.77 2800.69 813.66 2811.81 813.66C2816.08 813.66 2820.36 812.52 2823.2 810.25ZM2878.97 787.92C2878.97 772.05 2868.14 761.7 2853.32 761.7C2838.22 761.7 2827.1 772.53 2827.1 787.63C2827.1 802.74 2838.12 813.66 2855.13 813.66C2863.87 813.66 2870.99 810.82 2875.55 805.4L2869.19 798.09C2865.58 801.79 2861.11 803.6 2855.41 803.6C2846.58 803.6 2840.4 798.85 2838.98 791.43L2878.78 791.43C2878.88 790.29 2878.97 788.87 2878.97 787.92ZM2853.32 771.2C2861.11 771.2 2866.72 776.24 2867.66 783.55L2838.88 783.55C2840.02 776.14 2845.63 771.2 2853.32 771.2ZM2928.18 742.51L2928.18 768.54C2924.19 763.88 2918.4 761.7 2911.84 761.7C2897.12 761.7 2886.19 771.87 2886.19 787.63C2886.19 803.4 2897.12 813.66 2911.84 813.66C2918.78 813.66 2924.66 811.29 2928.66 806.45L2928.66 813L2940.06 813L2940.06 742.51ZM2913.27 803.5C2904.72 803.5 2898.16 797.33 2898.16 787.63C2898.16 777.95 2904.72 771.77 2913.27 771.77C2921.82 771.77 2928.37 777.95 2928.37 787.63C2928.37 797.33 2921.82 803.5 2913.27 803.5ZM3160.93 813.95C3179.17 813.95 3187.82 804.83 3187.82 794.19C3187.82 769.77 3148.39 778.99 3148.39 764.84C3148.39 759.8 3152.57 755.81 3162.83 755.81C3168.63 755.81 3175.18 757.52 3181.17 761.03L3185.06 751.44C3179.27 747.64 3170.91 745.55 3162.93 745.55C3144.69 745.55 3136.14 754.67 3136.14 765.4C3136.14 790.11 3175.66 780.7 3175.66 795.04C3175.66 799.99 3171.29 803.69 3160.93 803.69C3152.76 803.69 3144.31 800.65 3138.99 796.38L3134.71 805.97C3140.22 810.72 3150.58 813.95 3160.93 813.95ZM3236.17 762.27L3236.17 787.92C3236.17 798.09 3230.57 803.22 3222.3 803.22C3214.8 803.22 3210.43 798.85 3210.43 789.63L3210.43 762.27L3198.55 762.27L3198.55 791.25C3198.55 806.54 3207.39 813.66 3220.4 813.66C3226.96 813.66 3232.94 811.2 3236.74 806.54L3236.74 813L3248.05 813L3248.05 762.27ZM3279.3 813.66C3293.55 813.66 3302.29 807.49 3302.29 797.99C3302.29 778.13 3270.94 787.25 3270.94 777C3270.94 773.67 3274.36 771.29 3281.58 771.29C3286.43 771.29 3291.27 772.25 3296.12 775.1L3300.68 766.07C3296.12 763.32 3288.42 761.7 3281.68 761.7C3268 761.7 3259.35 767.97 3259.35 777.57C3259.35 797.8 3290.7 788.68 3290.7 798.37C3290.7 801.88 3287.57 803.98 3280.06 803.98C3273.7 803.98 3266.86 801.88 3262.39 798.94L3257.83 807.97C3262.39 811.2 3270.85 813.66 3279.3 813.66ZM3340.67 761.7C3333.74 761.7 3327.85 764.08 3323.86 768.92L3323.86 762.27L3312.55 762.27L3312.55 831.43L3324.43 831.43L3324.43 806.83C3328.51 811.48 3334.21 813.66 3340.67 813.66C3355.49 813.66 3366.42 803.4 3366.42 787.63C3366.42 771.96 3355.49 761.7 3340.67 761.7ZM3339.34 803.5C3330.79 803.5 3324.24 797.33 3324.24 787.63C3324.24 777.95 3330.79 771.77 3339.34 771.77C3347.89 771.77 3354.35 777.95 3354.35 787.63C3354.35 797.33 3347.89 803.5 3339.34 803.5ZM3425.41 787.92C3425.41 772.05 3414.58 761.7 3399.76 761.7C3384.66 761.7 3373.54 772.53 3373.54 787.63C3373.54 802.74 3384.56 813.66 3401.57 813.66C3410.31 813.66 3417.43 810.82 3421.99 805.4L3415.63 798.09C3412.02 801.79 3407.55 803.6 3401.85 803.6C3393.02 803.6 3386.84 798.85 3385.42 791.43L3425.22 791.43C3425.32 790.29 3425.41 788.87 3425.41 787.92ZM3399.76 771.2C3407.55 771.2 3413.16 776.24 3414.11 783.55L3385.32 783.55C3386.46 776.14 3392.07 771.2 3399.76 771.2ZM3465.6 761.7C3458.19 761.7 3452.01 764.17 3448.12 768.83L3448.12 762.27L3436.81 762.27L3436.81 813L3448.69 813L3448.69 787.35C3448.69 777.18 3454.39 772.05 3462.84 772.05C3470.44 772.05 3474.91 776.42 3474.91 785.45L3474.91 813L3486.78 813L3486.78 783.93C3486.78 768.63 3477.76 761.7 3465.6 761.7ZM3540.17 742.51L3540.17 768.54C3536.18 763.88 3530.39 761.7 3523.83 761.7C3509.11 761.7 3498.18 771.87 3498.18 787.63C3498.18 803.4 3509.11 813.66 3523.83 813.66C3530.77 813.66 3536.66 811.29 3540.65 806.45L3540.65 813L3552.05 813L3552.05 742.51ZM3525.26 803.5C3516.71 803.5 3510.15 797.33 3510.15 787.63C3510.15 777.95 3516.71 771.77 3525.26 771.77C3533.81 771.77 3540.36 777.95 3540.36 787.63C3540.36 797.33 3533.81 803.5 3525.26 803.5ZM3615.32 787.92C3615.32 772.05 3604.49 761.7 3589.67 761.7C3574.56 761.7 3563.45 772.53 3563.45 787.63C3563.45 802.74 3574.47 813.66 3591.47 813.66C3600.21 813.66 3607.34 810.82 3611.9 805.4L3605.53 798.09C3601.92 801.79 3597.46 803.6 3591.76 803.6C3582.92 803.6 3576.75 798.85 3575.32 791.43L3615.13 791.43C3615.22 790.29 3615.32 788.87 3615.32 787.92ZM3589.67 771.2C3597.46 771.2 3603.06 776.24 3604.01 783.55L3575.23 783.55C3576.37 776.14 3581.97 771.2 3589.67 771.2ZM3664.53 742.51L3664.53 768.54C3660.54 763.88 3654.74 761.7 3648.19 761.7C3633.46 761.7 3622.54 771.87 3622.54 787.63C3622.54 803.4 3633.46 813.66 3648.19 813.66C3655.12 813.66 3661.01 811.29 3665 806.45L3665 813L3676.4 813L3676.4 742.51ZM3649.61 803.5C3641.06 803.5 3634.51 797.33 3634.51 787.63C3634.51 777.95 3641.06 771.77 3649.61 771.77C3658.16 771.77 3664.72 777.95 3664.72 787.63C3664.72 797.33 3658.16 803.5 3649.61 803.5Z" />
</svg>